<svg xmlns="http://www.w3.org/2000/svg" width="50" height="50" viewBox="0 0 70 70" class="s-tech__img"><defs><linearGradient id="linear-gradient" gradientUnits="userSpaceOnUse"><stop offset="0" stop-color="#0052cc"></stop><stop offset=".923" stop-color="#2684ff"></stop></linearGradient><style></style></defs><path d="M19.354 30.115a1.856 1.856 0 00-3.157.343L.2 62.442a1.912 1.912 0 001.71 2.767h22.275a1.843 1.843 0 001.71-1.057c4.805-9.929 1.893-25.026-6.541-34.037z" fill="url(#linear-gradient)"></path><path d="M31.087 1.024a42.188 42.188 0 00-2.463 41.65l10.739 21.478a1.912 1.912 0 001.71 1.057h22.271a1.912 1.912 0 001.71-2.767S35.092 2.511 34.339 1.012a1.806 1.806 0 00-3.252.012z" fill="#2684ff"></path></svg>