<svg xmlns="http://www.w3.org/2000/svg" viewBox="3 2 26 26" class="s-tech__img"><path d="M10.3 4.6c-1 0-1.7.8-1.7 1.7 0 1 .7 1.8 1.7 1.8S12 7.4 12 6.5v-.1c0-1-.7-1.8-1.7-1.8zm11.4 0c-1 0-1.7.8-1.7 1.7 0 1 .8 1.7 1.7 1.7 1 0 1.7-.8 1.7-1.7 0-.9-.7-1.7-1.7-1.7zM16 3c-1 0-1.7.8-1.7 1.7 0 1 .7 1.8 1.7 1.8s1.8-.7 1.8-1.7v-.1C17.7 3.8 17 3 16 3zm9.3 6.4c-1.2.4-2.4.8-3.5 1-.2.1-.4.2-.5.4-.8 2.2-2.8 4.2-5 6.4-.1.1-.2.2-.4.2s-.3-.1-.4-.2c-2.1-2.2-4.2-4.2-5-6.4-.1-.2-.3-.4-.5-.4-1-.2-2.2-.6-3.3-1-.2-.1-.4 0-.5.1-.2.1-.2.3-.2.4.2 1.8.9 3.6 2.2 5.4 1.2 1.7 2.8 3.4 4.3 4.9 2.8 2.9 5.5 5.6 5.7 8.7 0 .3.3.5.5.5H22c.3 0 .5-.2.5-.5-.1-2.1-.9-4.2-2.4-6.4-.3-.5-.7-.9-1-1.4-.1-.2-.1-.4 0-.5l.3-.3c1.5-1.6 3.1-3.2 4.3-4.9 1.3-1.9 2-3.6 2.2-5.4l-.6-.6zM12.4 22.7c-.1-.1-.2-.2-.4-.2s-.4.1-.4.3c-1.4 2.1-2.1 4.1-2.2 6.1 0 .3.2.6.5.6h3.3c.3 0 .5-.2.5-.5.1-1 .4-1.9.9-3 .1-.3.1-.6-.1-.8-.4-.7-1.1-1.4-2.1-2.5zM16 11.1c1 0 1.6-.1 1.9-.1.3 0 .5.2.5.5v.2c-.1.4-.8 1.7-1.9 2.8-.1.1-.2.2-.4.2-.1 0-.3-.1-.4-.2-1.2-1.1-1.8-2.5-1.9-2.8-.1-.3 0-.6.3-.7h.2c.1 0 .7.1 1.7.1z" fill="#284970"></path></svg>