<svg xmlns="http://www.w3.org/2000/svg" width="50" height="50" viewBox="0 0 50 50" fill="none" class="s-tech__img"><path d="M25 46c11.598 0 21-9.402 21-21S36.598 4 25 4 4 13.402 4 25s9.402 21 21 21z" fill="#4353FF"></path><path d="M31.17 22.506l-1.904 5.998c0-.46-1.312-10.408-1.312-10.408-3.019 0-4.62 2.14-5.46 4.41l-2.323 6.011c0-.433-.328-5.959-.328-5.959a4.909 4.909 0 00-4.765-4.45l2.468 15.068c3.15 0 4.856-2.14 5.735-4.41l1.969-5.118c0 .21 1.313 9.528 1.313 9.528a6.063 6.063 0 005.774-4.239L36.8 18.096c-3.15 0-4.804 2.14-5.644 4.41h.013z" fill="#fff"></path></svg>